<?xml version="1.0" encoding="utf-8"?>
<!-- Generator: Adobe Illustrator 16.0.0, SVG Export Plug-In . SVG Version: 6.00 Build 0)  -->
<!DOCTYPE svg PUBLIC "-//W3C//DTD SVG 1.1//EN" "http://www.w3.org/Graphics/SVG/1.1/DTD/svg11.dtd" [
	<!ENTITY ns_extend "http://ns.adobe.com/Extensibility/1.0/">
	<!ENTITY ns_ai "http://ns.adobe.com/AdobeIllustrator/10.0/">
	<!ENTITY ns_graphs "http://ns.adobe.com/Graphs/1.0/">
	<!ENTITY ns_vars "http://ns.adobe.com/Variables/1.0/">
	<!ENTITY ns_imrep "http://ns.adobe.com/ImageReplacement/1.0/">
	<!ENTITY ns_sfw "http://ns.adobe.com/SaveForWeb/1.0/">
	<!ENTITY ns_custom "http://ns.adobe.com/GenericCustomNamespace/1.0/">
	<!ENTITY ns_adobe_xpath "http://ns.adobe.com/XPath/1.0/">
]>
<svg version="1.1" id="svg" xmlns:x="&ns_extend;" xmlns:i="&ns_ai;" xmlns:graph="&ns_graphs;"
	 xmlns="http://www.w3.org/2000/svg" xmlns:xlink="http://www.w3.org/1999/xlink" x="0px" y="0px" width="1000px" height="1000px"
	 viewBox="0 0 1000 1000" enable-background="new 0 0 1000 1000" xml:space="preserve">
<metadata>
	<sfw  xmlns="&ns_sfw;">
		<slices></slices>
		<sliceSourceBounds  height="2062" width="914" bottomLeftOrigin="true" y="-545.5" x="-488.5"></sliceSourceBounds>
	</sfw>
</metadata>
<g id="js-shape" transform="translate(300,100)">
	<path vector-effect="non-scaling-stroke" fill="none" d="M160,43c3.09,0,6-2.91,6-6c0-4.09-2.91-7-6-7c-4.09,0-7,2.91-7,7
		C153,40.09,155.91,43,160,43z"/>
	<path vector-effect="non-scaling-stroke" fill="none" d="M179,59h-14h-5h-14c-1.767,0-3,1.12-3,3c0,0.88,1.233,2,3,2h14h5h14
		c1.767,0,3-1.12,3-2C182,60.12,180.766,59,179,59L179,59z"/>
	<path fill="none" d="M159,648c16.017,0,29-12.983,29-29s-12.983-29-29-29s-29,12.983-29,29S142.983,648,159,648z"/>
	<path vector-effect="non-scaling-stroke" fill="none" d="M27,98c-1.749,0-3,1.249-3,3v472l0,0c0,1.751,1.251,3,3,3h264
		c1.748,0,3-1.249,3-3V101l0,0c0-1.751-1.252-3-3-3H27L27,98z"/>
	<path id="case_1_" vector-effect="non-scaling-stroke" fill="#FF0000" d="M306.1,643.439c6.21-8.213,9.9-18.42,9.9-29.439V53
		c0-27.261-22.042-49.333-49-49h-3V2c0.007-0.403-0.59-1-1-1h-50c-0.58,0-1.177,0.598-1,1v2H53C25.707,3.667,3.665,25.739,4,53l0,0
		v41l0,0H2c-0.403,0.4-1,0.998-1,2v27c0,0.845,0.597,1.441,1,1h2v33H2c-0.403-0.096-1,0.501-1,1v20c0,0.816,0.597,1.414,1,1h2v33H2
		c-0.403-0.037-1,0.561-1,1v20c0,0.876,0.597,1.474,1,1h2v380l0,0c-0.335,26.928,21.707,49,49,49h214
		C282.869,663,297.131,655.226,306.1,643.439z"/>
	<path id="js-charger" vector-effect="non-scaling-stroke" fill="none" d="M167,716v-14h-15v14h-1v27h4v16h2v132v71h5v-71l0,0V759h2
		v-16h4v-27H167z"/>
</g>
<rect x="400" y="800" fill="none" width="160" height="201"/>
<image overflow="visible" enable-background="new    " width="400" height="400" id="js-scan-image" xlink:href="mockups/shade.png"  transform="matrix(1.5 0 0 1.5 310 -1000)">
</image>
<g id="js-radial-point1">
	<circle id="radial-point" fill="#FFFFFF" cx="0" cy="0" r="4"/>
</g>
<g id="js-radial-point2">
	<circle id="radial-point_1_" fill="#FFFFFF" cx="0" cy="0" r="4"/>
</g>
<g id="js-radial-point3">
	<circle id="radial-point_2_" fill="#FFFFFF" cx="0" cy="0" r="4"/>
</g>
<g id="js-radial-point4">
	<circle id="radial-point_3_" fill="#FFFFFF" cx="0" cy="0" r="4"/>
</g>
<g id="js-radial-point5">
	<circle id="radial-point_4_" fill="#FFFFFF" cx="0" cy="0" r="4"/>
</g>
<g id="js-radial-point6">
	<circle id="radial-point_5_" fill="#FFFFFF" cx="0" cy="0" r="4"/>
</g>
<defs>
	
	<lineargradient  y1="800" y2="1000" x2="188.5" id="black-gradient" x1="188.5" gradientunits="userSpaceOnUse">
		<stop  style="stop-color: #000000; stop-opacity: 0;" offset="0"></stop>
		<stop  style="stop-color: #000000;" offset="1"></stop>
	</lineargradient>
</defs>
</svg>
