<svg id="svg" width="1000" height="1000" viewBox="0 0 1000 1000" style="margin-left:100%;position:absolute;">
  <defs>
    <linearGradient id="redyel" gradientUnits="objectBoundingBox" x1="0" y1="0" x2="0" y2="1">
        <stop offset="0%" stop-color="#ff0000"/>   
        <stop offset="100%" stop-color="#ffff00"/>   
    </linearGradient>
    <linearGradient id="yelgre" gradientUnits="objectBoundingBox" x1="0" y1="0" x2="0" y2="1">
        <stop offset="0%" stop-color="#ffff00"/>   
        <stop offset="100%" stop-color="#00ff00"/>   
    </linearGradient>
    <linearGradient id="grecya" gradientUnits="objectBoundingBox" x1="0" y1="0" x2="0" y2="1">
        <stop offset="0%" stop-color="#00ff00"/>   
        <stop offset="100%" stop-color="#00ffff"/>   
    </linearGradient>
    <linearGradient id="cyablu" gradientUnits="objectBoundingBox" x1="0" y1="0" x2="0" y2="1">
        <stop offset="0%" stop-color="#00ffff"/>   
        <stop offset="100%" stop-color="#0000ff"/>   
    </linearGradient>
    <linearGradient id="blumag" gradientUnits="objectBoundingBox" x1="0" y1="0" x2="0" y2="1">
        <stop offset="0%" stop-color="#0000ff"/>   
        <stop offset="100%" stop-color="#ff00ff"/>   
    </linearGradient>
    <linearGradient id="magred" gradientUnits="objectBoundingBox" x1="0" y1="0" x2="0" y2="1">
        <stop offset="0%" stop-color="#ff00ff"/>   
        <stop offset="100%" stop-color="#ff0000"/>   
    </linearGradient>
    <pattern id="gradient-pattern" width="100" height="1000" patternUnits="userSpaceOnUse">
        <g id="js-gradient">
            <rect x="0" y="0" width="100" height="16.666666667%" fill="url(#redyel)" />
            <rect x="0" y="16.666666667%"  width="100" height="16.666666667%" fill="url(#yelgre)" />
            <rect x="0" y="33.333333334%"  width="100" height="16.666666667%" fill="url(#grecya)" />
            <rect x="0" y="50.000000001%"  width="100" height="16.666666667%" fill="url(#cyablu)" />
            <rect x="0" y="66.666666668%"  width="100" height="16.666666667%" fill="url(#blumag)" />
            <rect x="0" y="83.333333335%"  width="100" height="16.666666667%" fill="url(#magred)" />
        </g>
    </pattern>

    <mask id="mask2">
        <circle fill="none" stroke-miterlimit="10" cx="500.403" cy="133.587" r="6.326"/>
        <path fill="none" stroke-miterlimit="10" d="M519.887,156.174h-14.352h-4.642h-14.351
        c-1.514,0-2.742,1.228-2.742,2.742s1.228,2.742,2.742,2.742h14.351h4.642h14.352c1.514,0,2.742-1.228,2.742-2.742
        S521.4,156.174,519.887,156.174z"/>
        <circle fill="none" stroke-miterlimit="10" cx="500.403" cy="716.115" r="29.095"/>
        <path fill="none" stroke-miterlimit="10" d="M367.819,194.552c-1.542,0-2.792,1.25-2.792,2.792v472.85v-0.105
        c0,1.542,1.25,2.792,2.792,2.792h264.2c1.542,0,2.793-1.25,2.793-2.792v-472.85v0.105c0-1.542-1.251-2.792-2.793-2.792H367.819z"/>
        <!-- stroke-dashoffset="900" stroke-dasharray="2000 2000" -->
        <path fill="none" stroke-miterlimit="10" d="M344.932,191.741h-1.334c-0.737,0-1.335,0.598-1.335,1.335v27.377
        c0,0.737,0.598,1.334,1.335,1.334h1.334v32.467h-1.334c-0.737,0-1.335,0.597-1.335,1.334v19.844c0,0.737,0.598,1.335,1.335,1.335
        h1.334v32.554h-1.334c-0.737,0-1.335,0.598-1.335,1.335V330.5c0,0.737,0.598,1.335,1.335,1.335h1.334v379.283v-0.001
        c0,27.23,22.075,49.305,49.305,49.305h214.194c27.23,0,49.305-22.074,49.306-49.305V150.302c0-27.231-22.075-49.306-49.306-49.306
        h-2.765v-1.334c0-0.737-0.598-1.334-1.335-1.334h-49.593c-0.737,0-1.335,0.598-1.335,1.334v1.334H394.237
        c-27.23,0-49.305,22.075-49.305,49.306v0V191.741z"/>
        <circle fill="none" stroke-miterlimit="10" cx="471.111" cy="158.917" r="2.682"/>
        <polygon  fill="white" stroke="0" points="507.668,812.916 507.668,798.529 493.169,798.529 493.169,812.916 491.919,812.916 491.919,839.999 
        495.919,839.999 495.919,855.978 497.898,855.978 497.898,987.748 497.898,1058.818 502.891,1058.818 502.891,987.748 
        502.896,987.748 502.896,855.978 504.877,855.978 504.877,839.999 508.918,839.999 508.918,812.916 "/>
        <lineargradient id="SVGID_1_" gradientunits="userSpaceOnUse" x1="188.5" y1="800" x2="188.5" y2="1000">
          <stop offset="0" style="stop-color: #000000; stop-opacity: 0;"></stop>
          <stop offset="1" style="stop-color: #000000;"></stop>
        </lineargradient>
        <rect stroke-width="0" x="420" y="800" fill="url(#SVGID_1_)" width="160" height="201"></rect>
        <image id="js-scan-image" xlink:href="mockups/shade.png" x="200" y="-500" height="600" width="600"></image>
    </mask>
  </defs>
</svg>
